Coordinates
version=1
nRows=35
nColumns=18
inDegrees=yes

Units are S.I. units (second, meters, Newtons, ...)
Angles are in degrees.

endheader
time	ground_thorax_rot_x	ground_thorax_rot_y	ground_thorax_rot_z	ground_thorax_tx	ground_thorax_ty	ground_thorax_tz	clav_prot	clav_elev	scapula_abduction	scapula_elevation	scapula_upward_rot	scapula_winging	plane_elv	shoulder_elv	axial_rot	elbow_flexion	pro_sup
      5.45000000	      0.65961800	     -4.05441809	    -10.29941172	     -0.00423131	      0.00403036	     -0.00078352	    -39.97712481	      9.92803993	    -10.59260615	     -2.02864814	     60.84156717	    -11.40294185	     11.01086410	     77.90518587	      5.08633204	      0.00000000	     34.32000000
      5.46000000	      0.60364084	     -4.05176285	    -10.30128766	     -0.00423131	      0.00403036	     -0.00078352	    -39.99404108	      9.92426387	    -10.61777458	     -2.03255695	     60.84302908	    -11.41098560	     11.10480512	     77.96813535	      5.06909169	      0.00000000	     34.32000000
      5.47000000	      0.62292895	     -4.06966502	    -10.28004094	     -0.00423131	      0.00403036	     -0.00078352	    -39.98337384	      9.91840800	    -10.46420994	     -2.03724461	     61.00660962	    -11.40684109	     11.13922730	     78.11233346	      5.16862901	      0.00000000	     34.32000000
      5.48000000	      0.49205385	     -4.04164631	    -10.26390036	     -0.00423131	      0.00403036	     -0.00078352	    -39.99696691	      9.90079855	    -10.42242218	     -2.05082661	     61.07742377	    -11.41022318	     11.19450890	     78.21862021	      5.17985698	      0.00000000	     34.32000000
      5.49000000	      0.56698652	     -4.13152352	    -10.35375146	     -0.00423131	      0.00403036	     -0.00078352	    -40.05173119	      9.74176723	    -10.31550646	     -2.16399755	     61.25079860	    -11.40268041	     11.56145661	     78.70877533	      5.02472307	      0.00000000	     34.32000000
      5.50000000	      0.19058155	     -3.96479825	    -10.49058862	     -0.00423131	      0.00403036	     -0.00078352	    -39.97293721	      9.29738778	    -10.49828436	     -2.45297571	     60.68452689	    -11.24246530	     11.71102674	     79.46899162	      4.59939967	      0.00000000	     34.32000000
      5.51000000	      0.53493086	     -4.21063443	    -10.28327934	     -0.00423131	      0.00403036	     -0.00078352	    -40.07294663	      9.86215910	    -10.21017461	     -2.08592753	     61.47238305	    -11.44542078	     11.72982434	     78.99645717	      4.95767723	      0.00000000	     34.32000000
      5.52000000	      0.11914332	     -4.03091302	    -10.47431732	     -0.00423131	      0.00403036	     -0.00078352	    -39.94179363	      9.29000289	    -10.33578558	     -2.45701954	     60.81816388	    -11.22659277	     11.80732624	     79.85980620	      4.49859615	      0.00000000	     34.32000000
      5.53000000	      0.00181019	     -4.03535321	    -10.46607014	     -0.00423131	      0.00403036	     -0.00078352	    -39.95750992	      9.29720225	    -10.29780130	     -2.45404599	     60.89917824	    -11.23763643	     11.85259941	     79.91606426	      4.50339087	      0.00000000	     34.32000000
      5.54000000	      0.49686670	     -4.37617553	    -10.40049433	     -0.00423131	      0.00403036	     -0.00078352	    -40.03935383	      9.69079643	     -9.75069284	     -2.20112871	     61.89526987	    -11.38919480	     11.99458560	     79.77849271	      4.70111531	      0.00000000	     34.32000000
      5.55000000	      0.51949684	     -4.28291373	    -10.41519791	     -0.00423131	      0.00403036	     -0.00078352	    -40.16986924	      9.74659154	     -9.87596299	     -2.17427847	     62.02691951	    -11.47248833	     12.28923830	     79.96477286	      4.50068980	      0.00000000	     34.32000000
      5.56000000	      0.54067919	     -4.24014182	    -10.40933710	     -0.00423131	      0.00403036	     -0.00078352	    -40.27639120	      9.85957650	    -10.03112587	     -2.10668070	     62.09750277	    -11.55706590	     12.59256247	     80.07353536	      4.42543280	      0.00000000	     34.32000000
      5.57000000	      0.55420622	     -4.29322982	    -10.42206748	     -0.00423131	      0.00403036	     -0.00078352	    -40.35775594	      9.94708733	    -10.16453936	     -2.05418042	     62.13371728	    -11.62199618	     12.91133319	     80.13211589	      4.35456014	      0.00000000	     34.32000000
      5.58000000	      0.50977191	     -4.42020780	    -10.44757383	     -0.00423131	      0.00403036	     -0.00078352	    -40.34882678	      9.94688862	    -10.15637487	     -2.05358308	     62.12574091	    -11.61714016	     13.11588388	     80.21044175	      4.33128292	      0.00000000	     34.32000000
      5.59000000	      0.54035951	     -4.55666642	    -10.45004927	     -0.00423131	      0.00403036	     -0.00078352	    -40.27687822	      9.96969282	     -9.98139516	     -2.03266597	     62.20513881	    -11.58435788	     13.25279880	     80.40009606	      4.57937564	      0.00000000	     34.32000000
      5.60000000	      0.51959719	     -4.61538753	    -10.47517540	     -0.00423131	      0.00403036	     -0.00078352	    -40.25309989	      9.90883758	     -9.83357412	     -2.07199362	     62.31286488	    -11.55729649	     13.41248084	     80.64017594	      4.69065533	      0.00000000	     34.32000000
      5.61000000	      0.00022437	     -4.38635244	    -10.65834530	     -0.00423131	      0.00403036	     -0.00078352	    -40.06878745	      9.33580814	    -10.02686419	     -2.44149435	     61.47030501	    -11.31218505	     13.53602615	     81.70850406	      4.27634297	      0.00000000	     34.32000000
      5.62000000	      0.06732456	     -4.64772022	    -10.56702174	     -0.00423131	      0.00403036	     -0.00078352	    -40.17002591	      9.47777361	     -9.83109299	     -2.35570966	     61.97142196	    -11.40542091	     13.89153205	     81.41637769	      4.34507186	      0.00000000	     34.32000000
      5.63000000	      0.02136873	     -4.62811161	    -10.69212251	     -0.00423131	      0.00403036	     -0.00078352	    -40.18111528	      9.39901176	     -9.87494821	     -2.40969361	     61.90766530	    -11.39105781	     13.88490415	     81.76751407	      4.15147417	      0.00000000	     34.32000000
      5.64000000	     -0.03548765	     -4.64445239	    -10.69470547	     -0.00423131	      0.00403036	     -0.00078352	    -40.18472967	      9.41656030	     -9.84841842	     -2.39818678	     61.95464346	    -11.39756932	     13.93063054	     81.76256299	      4.15618813	      0.00000000	     34.32000000
      5.65000000	      0.42874384	     -4.88528131	    -10.51426525	     -0.00423131	      0.00403036	     -0.00078352	    -40.29764850	      9.85707441	     -9.44167804	     -2.11033545	     62.85982609	    -11.56870259	     14.16566706	     81.27723107	      4.66016662	      0.00000000	     34.32000000
      5.66000000	      0.32840700	     -4.80298903	    -10.51714171	     -0.00423131	      0.00403036	     -0.00078352	    -40.30160149	      9.84271268	     -9.39114180	     -2.12019553	     62.92399941	    -11.56665085	     14.23663399	     81.36599526	      4.67187211	      0.00000000	     34.32000000
      5.67000000	      0.46918690	     -4.76977851	    -10.54626077	     -0.00423131	      0.00403036	     -0.00078352	    -40.45269858	      9.83023751	     -9.49794657	     -2.14016542	     63.09178431	    -11.64385117	     14.85191326	     81.79444264	      4.69376752	      0.00000000	     34.32000000
      5.68000000	      0.52293235	     -4.82043476	    -10.53242888	     -0.00423131	      0.00403036	     -0.00078352	    -40.50576021	      9.99970808	     -9.48330825	     -2.02935961	     63.28591869	    -11.71269422	     15.14921415	     81.95735228	      5.09187102	      0.00000000	     34.32000000
      5.69000000	      0.45983659	     -4.82220275	    -10.55828485	     -0.00423131	      0.00403036	     -0.00078352	    -40.53872630	     10.01966660	     -9.52423722	     -2.01843034	     63.31028777	    -11.73515424	     15.39765761	     82.16037811	      4.81416838	      0.00000000	     34.32000000
      5.70000000	      0.45000383	     -4.89865807	    -10.57729393	     -0.00423131	      0.00403036	     -0.00078352	    -40.51833212	      9.96495362	     -9.41664161	     -2.05337040	     63.37854120	    -11.71034917	     15.59106888	     82.32737065	      4.66000056	      0.00000000	     34.32000000
      5.71000000	      0.51931189	     -4.99194082	    -10.60446248	     -0.00423131	      0.00403036	     -0.00078352	    -40.50222204	      9.83808866	     -9.24071933	     -2.13691483	     63.50952014	    -11.67007913	     15.82192756	     82.59501200	      4.62183976	      0.00000000	     34.32000000
      5.72000000	      0.41320734	     -5.05553634	    -10.58814497	     -0.00423131	      0.00403036	     -0.00078352	    -40.49735419	      9.64611959	     -9.05239931	     -2.26521144	     63.65277644	    -11.61803975	     16.07919856	     82.69905957	      4.67401334	      0.00000000	     34.32000000
      5.73000000	      0.35042546	     -5.16844802	    -10.66189810	     -0.00423131	      0.00403036	     -0.00078352	    -40.51499516	      9.44893171	     -8.79957317	     -2.39781472	     63.91946267	    -11.57462248	     16.26925309	     82.86370967	      4.50715316	      0.00000000	     34.32000000
      5.74000000	      0.36303821	     -5.14140767	    -10.63889570	     -0.00423131	      0.00403036	     -0.00078352	    -40.65110897	      9.54551062	     -8.87082980	     -2.34139469	     64.14530768	    -11.66959115	     16.64424951	     82.88207862	      4.31395902	      0.00000000	     34.32000000
      5.75000000	      0.40521592	     -5.02373155	    -10.58740005	     -0.00423131	      0.00403036	     -0.00078352	    -40.85138018	      9.77887487	     -9.11947790	     -2.19785016	     64.33764070	    -11.83446183	     17.05196667	     82.78736603	      4.16824230	      0.00000000	     34.32000000
      5.76000000	      0.43408397	     -4.92751035	    -10.55598437	     -0.00423131	      0.00403036	     -0.00078352	    -40.98594756	      9.93119455	     -9.23137500	     -2.10367747	     64.53304983	    -11.94300544	     17.35702779	     82.77735595	      4.08283361	      0.00000000	     34.32000000
      5.77000000	      0.43065059	     -4.97862213	    -10.53329548	     -0.00423131	      0.00403036	     -0.00078352	    -40.94693350	      9.92966905	     -8.97378953	     -2.09864527	     64.77019863	    -11.91685339	     17.43731929	     82.90016292	      4.40396661	      0.00000000	     34.32000000
      5.78000000	      0.38771076	     -5.06675752	    -10.57674503	     -0.00423131	      0.00403036	     -0.00078352	    -40.87033039	      9.70532922	     -8.60763447	     -2.24101470	     64.97561872	    -11.81445865	     17.45762696	     83.21726958	      4.30188991	      0.00000000	     34.32000000
      5.79000000	      0.32057425	     -5.13521141	    -10.56982635	     -0.00423131	      0.00403036	     -0.00078352	    -40.77518023	      9.58015401	     -8.27299438	     -2.31542829	     65.14487543	    -11.72706113	     17.44076655	     83.48546360	      4.27554390	      0.00000000	     34.32000000
